<svg xmlns="http://www.w3.org/2000/svg" width="987" height="987" viewBox="0 0 987 987"><title>Untitled 8</title><path d="m554 4 2 .3A501 501 0 0 1 701 46l5 2.2a440 440 0 0 1 87.6 54 475 475 0 0 1 19.5 15.8l1.6 1.3q15.3 13.5 29.7 27.9l5.4 5.4a243 243 0 0 1 22.2 24.9q12.3 14.2 23 29.5l1.3 1.8c11.7 16.3 22 33.6 31.7 51.2l1.3 2.3c29.3 52.2 46 111.5 53.7 170.7l.5 3.9a472 472 0 0 1-.8 119.1A501 501 0 0 1 941 701l-2.2 5a440 440 0 0 1-54 87.6q-7.5 9.9-15.7 19.5l-1.3 1.5q-13.5 15.6-28.4 30.1l-5 5A445 445 0 0 1 791 887l-2 1.5a566 566 0 0 1-60 38.5l-2.6 1.5A450 450 0 0 1 648 962l-3.5 1.2a491 491 0 0 1-81.7 18.7l-2 .3a454 454 0 0 1-66.8 4.1h-3.5a443 443 0 0 1-59.5-3.6A501 501 0 0 1 286 941l-5-2.2a440 440 0 0 1-87.6-54 475 475 0 0 1-19.5-15.8l-1.6-1.3q-15.3-13.5-29.7-27.9l-5.4-5.4a243 243 0 0 1-22.2-24.9A454 454 0 0 1 60 729l-1.4-2.6A449 449 0 0 1 25 648l-1.2-3.5a491 491 0 0 1-18.7-81.7l-.3-2A454 454 0 0 1 .7 494v-3.5A443 443 0 0 1 4.3 431 501 501 0 0 1 46 286l2.2-5a440 440 0 0 1 54-87.6 475 475 0 0 1 15.8-19.5l1.3-1.6q13.5-15.3 27.9-29.7l5.4-5.4a243 243 0 0 1 24.9-22.2q14.2-12.2 29.5-23l1.8-1.3Q233.4 73.4 260 59l2.3-1.3C314.5 28.5 373.8 11.7 433 4l3.9-.5A472 472 0 0 1 554 4M432 21l-4.2.6A467 467 0 0 0 298 59l-3.5 1.6Q269 72.4 245 87l-2.6 1.5Q224 99.9 207 113l-2 1.5a484 484 0 0 0-40.7 34.9 319 319 0 0 0-25 25.5 278 278 0 0 0-17.8 21.2l-4.8 6c-52 65.3-84 145.6-95.4 227.8l-.8 5.8c-5.4 38.8-5 80.6.5 119.3l.6 4.2A467 467 0 0 0 87 742l1.6 2.6a331 331 0 0 0 21 30.6l6 8.1a396 396 0 0 0 32.2 37.4q3 3 5.5 6.1 5.4 6.1 11.4 11.6l2.2 2 4.2 3.8 4.9 4.6q9.6 9 20 16.7l6.2 4.8c65.2 52 145.4 84 227.7 95.4l5.8.8c38.8 5.4 80.6 5 119.3-.5l4.2-.6A467 467 0 0 0 689 928l3.5-1.6a448 448 0 0 0 121.3-80.7l12.8-11.6 2.1-2q6.2-6 11.6-12.2l8-8.7q8.3-8.9 15.7-18.2l1.5-1.9a480 480 0 0 0 100.2-234l.8-5.8c5.4-38.8 5-80.6-.5-119.3l-.6-4.2A467 467 0 0 0 928 298l-1.6-3.5c-21.6-47-51.2-93.4-88.4-129.5l-5.1-5.7c-5.7-6.6-12.4-12.4-18.9-18.3l-2.8-2.6q-9-8-18.2-15.4l-1.9-1.5A455 455 0 0 0 730 80l-2.7-1.5A480 480 0 0 0 557 21.3l-5.8-.8c-38.8-5.4-80.6-5-119.3.5"/><path d="m502 46 7 75q-12 2.2-24 2l-1-6.7-.5-3.7L482 95q-1.2 0-2.3.3l-10.6 1.1-3.6.4-7.2.8-6 .7c-6.2.7-12 .7-18.3.7l3 29c-15.9 2.3-15.9 2.3-24 2-1.9-12.7-3-25.5-4.3-38.3l-1-10.9-.7-7-.3-3.2q-.8-8.2-.7-16.6l11.4-1 3.3-.4 3.2-.3 2.9-.2 2.2-.1c1.8 1.8 1.4 4.4 1.5 6.8l.3 3.5q0 1.9.3 3.8l.2 3.7.7 9.2 2.8-.4c31.5-4 31.5-4 45.2-3.6l-1-9.5-.3-2.7Q478 55 478 47l10.3-1 3-.4 2.8-.3 2.6-.2c2.3-.1 2.3-.1 5.3.9m46 5q11.6.6 23 3-.9 13.4-2.8 26.6l-.5 3.7-1.1 7.8-1.7 11.8-1 7.6-.6 3.6-.5 3.3-.4 3-1.4 7.6c-7.5.3-17.2.4-24-3 5.8-43.9 5.8-43.9 8.3-61.7l.5-3.5.4-3 .4-2.7c.4-2.1.4-2.1 1.4-4.1m68 12c15.6 4 15.6 4 21 7 1.4 4.3-.3 7.4-1.8 11.4l-1 2.6-2.9 8-2 5.3L620 123q15 6.4 30.8 11.8l5 1.8L668 141q-1.2 6.3-3.6 12.3l-.7 2-1.7 4.7c-8.2-1.5-15.9-4.3-23.7-7.2l-4.2-1.6-11-4-11.1-4.1-22-8.1q3-10.9 7-21.5l1.2-3.2 2.4-6.8 3.7-10.2 2.4-6.5 1-3q4-10.6 8.3-20.8M361.2 77c4 3.7 6.5 9 8.8 14v2l-12.7 5.8-2.7 1.2-2.5 1.2c-2.1.8-2.1.8-4.1.8l-3-5c-8.7.2-15.7 3.7-23.4 7.5l-5.7 2.7-5.1 2.5C308 111 308 111 305 112c-3.5 10.4 1.5 18.7 6 28l.7 2.4c1.3 1.6 1.3 1.6 5 2.5 4.4.4 8-1 12.1-2.8l2.2-1 12.3-5.4 7.7-3.3q3.2-1.4 6-3.4c1.5-4 .9-6.9 0-11l9.9-4.5 5.5-2.5 2.5-1.2c2.1-.8 2.1-.8 4.1-.8 7.6 15 7.6 15 4.9 23.7-7.6 13.3-22.4 18.1-36 24l-12.8 5.5-2.3 1c-9.1 4-19 8-29 5.2-10.2-4.5-14.6-14.3-18.8-24l-2.5-5.8c-4.3-9.6-8-18-5.5-28.6 4.8-9.7 14.4-14.6 23.8-19l3.3-1.5c44-20.5 44-20.5 57-12.6M722 109a19 19 0 0 1 7.9 3.5l2.1 1.5 2.3 1.6 2.2 1.5 5.5 3.9c-1.5 4.5-4 8.2-6.7 12l-1.5 2.1-8.5 12.3-7.3 10.4-1.5 2.2-3.2 4c-1.3 2-1.3 2-1.3 5a86 86 0 0 0 6.8 4.8l4.3 3 2.4 1.5 13.2 9c.4.4.4.4 2.6 1.8l2.4 1.7 2.1 1.5q3.8 3 7.2 6.7l-11 15a61 61 0 0 1-7.8-4.6l-2.3-1.5q-1.2-.7-2.4-1.7l-2.5-1.7-20.5-14.2L680 172c1-4.4 3.3-7.6 5.8-11.2l1.5-2.1 4.7-6.7 3-4.1 5.8-8.4 10.7-15.2 1.8-2.5q4.5-6.4 8.7-12.8m-234.6 43.7h5.2v.1h3.3c16.6 0 32.7.4 49.1 3.2l3.3.5q22.6 3.8 44.7 10.5l2.5.7c61.6 18.5 122.2 58 161.5 109.3l2.7 3.3a324 324 0 0 1 35.3 53.1 327 327 0 0 1 39.3 159.7v3.2c0 16.4-.6 32.5-3.3 48.7l-.5 3.2A345 345 0 0 1 795 653l-1.1 2A317 317 0 0 1 710 757l-3.3 2.7a323 323 0 0 1-53.1 35.3 311 311 0 0 1-146.4 39.2h-16c-16.6 0-32.8-.4-49.2-3.2l-3.3-.5q-53-9-100.8-33.5l-5.8-3a273 273 0 0 1-50.1-33l-2.8-2.2a294 294 0 0 1-52-52A331 331 0 0 1 194 657l-1.1-2A332 332 0 0 1 154 530l-.3-2.6c-1-10.4-1-20.8-1-31.3v-5c0-16.6.5-32.7 3.3-49.1l.5-3.3q7.7-45 26.5-86.7l1-2.3a308 308 0 0 1 44.2-70.5A295 295 0 0 1 277 230l3.3-2.7A331 331 0 0 1 330 194l2-1.1A332 332 0 0 1 457 154l2.6-.3c9.3-1 18.5-1 27.8-1M349 203l-2.5 1.2A306 306 0 0 0 277 252l-2 1.8a327 327 0 0 0-105.7 224.8l-.3 6.4-.1 2.5A316 316 0 0 0 231 684l1.2 1.6A329 329 0 0 0 449 815c64.3 9 131-2 189-31l2.5-1.2A309 309 0 0 0 711 734l1.9-1.7a325 325 0 0 0 104.8-222.4l.3-8.9.1-3.5A322 322 0 0 0 734 276l-1.9-2a259 259 0 0 0-23.1-23l-3-2.7A327 327 0 0 0 501 169l-3.5-.1A322 322 0 0 0 349 203m466-23a193 193 0 0 1 19.7 22.6l9.8 11.9q6.4 7.6 12.6 15.6 5.2 6.6 10.9 12.9c-1.5 4-4.2 6-7.6 8.8l-3 2.4-2.4 1.8a316 316 0 0 1-22-25.4L817 211l-2.8 2c-3.2 2-3.2 2-6.2 3q6 8 12.3 15.8l1.7 2.1 18 22.2 1.8 2.1c1.2 1.8 1.2 1.8 1.2 3.8a99 99 0 0 1-8.4 7.1C832 271 832 271 830 271l-5-6.2a370 370 0 0 0-12.9-15.9q-6-7.1-11.5-14.5c-3.3-4.3-3.3-4.3-6.6-5.4-1.8 1.2-1.8 1.2-3.7 3l-1.9 1.7-1.4 1.3a418 418 0 0 0 17 21q10.5 12 20 25c-1.5 4-4.2 6-7.6 8.8l-3 2.4-2.4 1.8q-5.7-5.6-10.8-11.7l-1.6-1.9-10.7-13-13-16-14.4-17.8c-3.5-4.4-3.5-4.4-3.5-6.6l4.3-3.6 2.8-2.1 2.9-2.3 5.1-4.2zm-629.4 16.7q6.3 3.6 11.9 8.1l12 9c6.4 4.9 11 9.6 13.1 17.6 1.3 15-13 29-21.5 40q-4.7 6-9.2 12.2l-1.7 2.3-3.4 4.7-9.7 13-3.5 5-2.6 3.4c-5.2-1.6-9-4.9-13.1-8.2q-9.6-7.6-19.3-14.7L109 267a274 274 0 0 1 13.6-19q7.8-10 15.2-20.4c28.5-39.8 28.5-39.8 47.8-30.9m-16.3 23.5c-9.2 7.4-15.8 18-22.6 27.5l-3.5 4.6-1.7 2.1-1.5 1.9-1 1.7c1.2 3.5 2 4 5 6.1l2.5 1.8 2.6 2 5 3.6 2.5 1.7q4.4 3.3 8.7 6.8l1.7 1c3.4-1.1 3.9-1.9 6-4.7l3.4-4.9 3.8-5.2 2-2.6 5.4-7.1 1.6-2.1q1.4-2 3.2-3.9c3-4 4.6-7.3 4.9-12.4-.7-5-4.7-7.6-8.4-10.6l-3.3-2.2-3.2-2.3c-8.3-4.9-8.3-4.9-13.1-2.8M894 286l10 25.1 9.3 23 1.7 4.2 2.4 6 1.4 3.5A39 39 0 0 1 922 368c-4.5 9.3-12.8 12.7-22 16-4.8 1.4-9.2 1.9-13.8-.4-2.2-1.6-2.2-1.6-4.2-3.6l-.5 1.8c-1.5 5.6-3.3 9.3-8.5 12.2-13 6.4-13 6.4-17 5-1-1.7-1-1.7-1.9-3.9l-.9-2.4-1-2.5-1-2.5-.9-2.4-.8-2.2c-.6-2.4-.4-3.8.5-6.1 2.2-1.2 2.2-1.2 4.9-2.2l2.6-1 5.5-1.8c1.1-9.4-2.9-17-6.5-25.4l-2.8-6.6-1.7-4.1c-2-4.7-2-4.7-2-6.9l-18 7c-2-2-2.7-3.4-3.7-6l-1-2.4-1-2.5c0-.5 0-.5-1-2.5-2.3-6.2-2.3-6.2-2.3-9.6l3.3-1.3 15.5-6 2.8-1.1 28-11.1 2-.8 8.6-3.6 3-1.3 2.6-1c2.2-.8 2.2-.8 5.2-.8m-18.6 32-2.2.9-5.2 2.1c1 6.3 3.6 12 6 17.9l2.4 6.2 1.6 4 1.5 3.5c3.9 8.6 3.9 8.6 7.8 10.5 4.1-.2 8.7-2.1 11.7-5.1.4-5.3-.6-9.4-2.5-14.3l-.9-2-2.5-6.3-1.7-4.3L887 320l-2-5c-3.4 0-6.5 1.7-9.6 3"/><path d="M126 318c1.4 1.8 1.4 1.8 3 4.4l1.8 2.7 1.8 2.9 1.9 2.9 4.5 7.1 2.5-1q9.8-3.8 19.5-7c-4.8 17.6-4.8 17.6-10.1 21-2.7 1-2.9 1-4.5 1h-.4l.7 1.8a31 31 0 0 1-1.3 25.4c-3.5 6.6-8.4 12-15.4 14.8a28 28 0 0 1-18.2-2.6c-5-4-8-9-8.7-15.5l-.1-3.9-2.2 1a29 29 0 0 1-18.2 0 22 22 0 0 1-9.6-10 33 33 0 0 1 3.8-24.4c3.6-4.3 7.6-8.3 13.2-9.6 6.6-.2 12.1 1.5 17 6 3.3 4.5 4.9 8.5 6 14l10-4c0-3.6-.6-3.7-2.9-6.2-1.6-2.4-2.3-3.9-1.7-6.7A110 110 0 0 1 124 318zm7 40c-3.4 0-6.4 1.5-9.6 2.8v-.1l-2 .8c-5.1 2-5.1 2-6.4 4.5 0 4 2.1 7 4.8 10 3.4 1.6 5.5 1 9.2 0 3.2-2.7 4.7-4.2 5.3-8.3a27 27 0 0 0-1.3-9.7m-46-10.9a11 11 0 0 0 0 8.9c2 2 2 2 5 3a42 42 0 0 0 9-3c-.5-4.8-1.3-7.7-5-11-4.1-.7-6-1-9 2.1M80 417a165 165 0 0 1-1 23l-3.4.9c-2.3 1-3.4 1.6-4.5 4q-.8 4-1.1 8.1l-.3 3.6c-2 27.6-2 27.6 1.3 32.4 8.3 4 21 4 30 3 4.6-2 4.6-2 5.9-5a200 200 0 0 0 2.1-23l.1-2.3.2-6.9.1-2.2c0-3.4-.1-5.2-2.2-8-2.2-1.6-3.6-2-6.2-2.6v2l-.4 8.6-.2 3v2.9l-.2 2.7L99 471l-16-1q.9-26.5 3-53c31.1 1.2 31.1 1.2 38 7l1.8 1.4c4.3 5.6 3.5 12.9 3.4 19.6v3.6q0 13.6-1 27.3l-.2 3.7c-1.8 25.1-1.8 25.1-11 33.2-9.8 7.1-22.1 5.4-33.7 4.5l-3.5-.3c-9-.7-18.5-1.6-25.3-8.2-5.3-6.6-6.1-14.4-5.9-22.5v-3.1l1.2-25.8.2-3.7c1.7-25.1 1.7-25.1 9-32.7 6.2-5.1 13.4-4.4 21-4m854.8 8.2A34 34 0 0 1 941 444l.3 2.2.6 6.8.3 3.6q1 12.9 1 25.9l.1 6c0 8.5-.5 14.5-6.7 20.9A28 28 0 0 1 920 513c-1.1-4.7-1.3-9.5-1.6-14.3v-2.5l-.4-6.2 3-1.3c3-1.7 3-1.7 4-4.7v-4.9l-.2-3-.2-3-.6-12.1-.1-2.2c-.6-9.7-.6-9.7-2.9-13.8h-6c-1.5 3.4-2.2 6-2.2 9.6v3l.6 10c2 36.4 2 36.4-3.9 44.4-7 6.7-15.8 6.4-25 6.2-5 0-9.7-2-13.2-5.6-5.7-7.5-5.8-18.8-6.4-27.8l-.3-3.3-.6-9.5-.3-4.8c-2-29.5-2-29.5 4-40 5.8-5.3 12.8-5.6 20.3-5.2q1 12 1 24l-3 1c-3 1-3 1-4 2-.6 9.4.2 18.9 1 28.2l.2 3.4c.7 8 .7 8 1.8 11.4 2.8.7 2.8.7 6 1 1.7-1.2 1.7-1.2 3-3 .3-2.4.3-2.4.3-5.3v-3.2l-.1-3.5v-3.7l-.3-15.4v-11.2l-.2-3.5c0-7.9.4-14 5.9-20 9.6-7.1 26-6.2 35.1 1M470.3 571.9v.1q14.3 3.4 28.2 8.2 3.2 1 6.5 1.8c-.6 3.2-1.8 5.5-3.5 8.3l-1.6 2.5-1.8 2.8-1.9 2.9q-8.1 12.6-16.6 25.1-7 10.4-13.8 21.3l-13.4 20.8-5.4 8.3-7.7 11.9-2.6 4-1.3 2L409 732c-3.4-1.1-3.8-1.7-5.8-4.5l-1.6-2.3-1.8-2.5-5.8-8-10.1-13.4-18.4-24.3-8.2-11-3.1-4-2.2-3-9.3 9.8-2.1 2.4-1.6 1.8a15 15 0 0 1-7-5.4l-3.3-4.5-1.9-2.4-15.2-20.2q-7.1-9.6-14.5-19-12.4-15.8-24.4-32l-1.4-1.9c-3.2-4.2-3.3-4.4-3.3-6.3v-.3q35.7-4.8 71.5-9l2.7-.3c86.6-10 86.6-10 128.1.2M662 312.1v3.9l1.9.4 25.6 5.4 5.5 1.2 8 1.8 2.5.5A44 44 0 0 1 718 330c-.5 7.8-6 11.6-11.4 16.5l-1.3 1.2-.2.2-2.5 2.9c-6.5 6.4-12 6.7-20.8 6.8q-9 0-17.8-.6c1.1-2.5 2-4 4-6a427 427 0 0 0-79 59l-2.1 2a35 35 0 0 0-11.3 18.9q-1.5 5.2-4.4 9.7L570 443q-8.4 15-18 29.1l-1.3 2q-13.4 20.7-27.2 41.2l-8.4 12.9-4.8 7.2-7 10.7-2.6 4-3.5 5.3-2 3c-1.2 2.7-1.2 2.7-1 5 .8 1.7.8 1.7 1.8 2.7.2 5.5.2 5.5-1 8a1461 1461 0 0 1-49-10c-2.4-8.6 2.1-18 5-26l-1.6 1.9c-5.5 4.9-14.1 5.4-21.8 5.4H420c-5.3 0-10-.8-15.1-2.3a22 22 0 0 0 5 10 46 46 0 0 0 7 3c-3.4 2-6.5 2.5-10.4 2.9l-4 .4-4.2.4-4.4.5-20.9 2.2-9 1q-2.3 0-4.4.4l-6 .6-3.5.4c-8.5.6-8.5.6-11.2-1l-1.7-1.8-2-2-2-2.1-2.1-2.2c-12.5-13.1-30.4-32.5-31.9-51.3 1.7-28 23.8-56.1 42.2-75.7q3.9-4.2 7.6-8.9a51 51 0 0 1 19.3-10.4l2.8-1 18.4-6.5 6.6-2.4a2868 2868 0 0 0 203.3-81.2c18.1-8.1 43-12.7 62.5-6.3M295 516c3.4 2.8 5 6.6 7 10.4a146 146 0 0 0 27 34.6c2 2 2 2 2 4q-13.8 2.4-27.7 3.9l-7.2.8L283 571l-3.2.3c-4.5.3-6.1.3-9.7-2.7l-2.2-3.3-2.3-3.2a11 11 0 0 1-1.6-8.1c1.1-2 1.1-2 2.7-3.7l1.7-2 2-2.2 3.8-4.6 2-2.3 7.8-9.8q5.4-6.9 11-13.4m359-196.9c-3.8 0-5.6.5-9 2v1h12zM233 794c2.8 2.2 4.4 3.9 6 7 .7 5.9.7 5.9-1 8.8-3 3.5-4.7 5-9.2 5.6-5-.5-6.3-2-9.8-5.4a16 16 0 0 1-1-10c3.9-6.1 8-7.1 15-6m531 0c2.9 1.8 4.5 3 6 6 .4 8.9.4 8.9-2 12-2.9 2.3-4.8 3-8.4 3.5-4.8-.7-6.3-2.2-9.6-5.5-1.5-3-1.2-5.6-1-9 3.3-7 7.8-8 15-7m-461 39a130 130 0 0 1 22.4 9.5l12.1 6c4.4 2.3 4.4 2.3 5.5 4.5-.8 1.7-.8 1.7-2 3.6l-2 3.4a112 112 0 0 1-22.3-9.6L310 847l-1 5 2.2 1 9.7 4.8 9.8 4.8c2.3 1.4 2.3 1.4 3.3 4.4-1.4 3.2-1.4 3.2-3 6l-9-4.2-2.5-1.2L304 860l-2 6 1.6.5q9.1 3 17.5 7.7l2.6 1.4 6.3 3.4a17 17 0 0 1-5 9l-39-19q8-18.2 17-36m386 1c3.7 3.4 5 7 6 12l-2 3 2.8.6c4 1.8 5.2 3.4 7.2 7.4 1 3.5 1 3.5 1 7-4 6.4-10 9-16.6 12.3l-3.2 1.6c-12.7 6.5-12.7 6.5-20.2 5.1a15 15 0 0 1-6-10l5.9-3.2c2.5-1 3.6-.7 6.1.2v2a30 30 0 0 0 12.8-4.6c6-3.4 6-3.4 8.2-3.4l-1-6-2 .8q-7 3-14 5.2c-3-4.4-3-4.4-3-7 1.4-2.9 3.2-3.5 6-4.7q1.4-.8 2.9-1.3l2.1-1-1-5a75 75 0 0 0-18 8l1 5-4.3 2.6-2.4 1.4c-2.3 1-2.3 1-5.3 0-1.8-3-2-5-2-8.5 1.5-5 4.8-7.2 9.2-9.8l7.3-3.9 2.5-1.3c12.6-6.6 12.6-6.6 20-4.5m-51.3 24c6.7 5.8 9.2 17 10.7 25.4.3 3.7-.4 5.5-2.5 8.6a22 22 0 0 1-10 6.2l-2 .7-5.9 2.1-2.9 1c-5.3 1.8-10.5 3-16.1 2-3-2-3.8-3.1-4.6-6.6l-.4-2.4 5.2-1.6 3-.8c2.8-.6 2.8-.6 5.2 0 3.8.6 6.3-.6 9.8-2l2-.7c4.6-1.7 4.6-1.7 5.8-2.9v-5c-2 0-2 0-5.4 1.8-7.5 3.8-16 7.6-24.6 6.2-5.3-3.3-6.3-8.3-7.7-14-.3-3.4 0-5 1.7-8 5.4-4.4 13.1-6.2 19.7-8.3l2.4-.8c5.7-1.8 10.9-3 16.6-.9m-20 12c-.4 0-.4 0-2.3.8L610 873v5l2 2c6.6-.3 15.3-2.3 20-7-.4-2.6-.4-2.6-1-5-5-1.7-8.6 0-13.3 2m-243.5-8.2 3.2 1A39 39 0 0 1 394 872c.2 1.9.2 1.9.2 4v2.1c-.2 1.9-.2 1.9-1.2 3.9l-4.3-1-2.4-.5c-2.3-.5-2.3-.5-5.3-1.5l-.5-2c-.5-2-.5-2-2.1-3l-2-.7-2.3-.8-2.4-.7-2.4-.9A30 30 0 0 0 359 869c.2 1.9.2 1.9 1 4 2 1.1 2 1.1 4.6 2l3 1 3 1c13.6 4.4 13.6 4.4 19.4 9 1.9 3.7.8 8 0 12-2 3.8-3.4 5.6-7 8-7 .9-13.3-1.6-20-3.7l-3.4-1c-15.7-4.9-15.7-4.9-19.2-11.2-.5-3.6.2-5.8 1.6-9.1 4.3.5 8 1.2 12 3v5q11.4 3.2 23 6v-4l-3-1.1-16.6-6.2-3.2-1.3-2.7-1c-3-1.7-4.6-3.5-6.5-6.4.1-6.2 1.5-11 5.6-15.9 7.6-3.6 16.2 0 23.6 2.6M403 872q13.2 1 26.3 3.6l7 1.2 4.6.8 2 .4c5 .9 5 .9 6.1 2l-1 10-17-3-.8 6q-1.6 11.6-4.2 23l-4.9-.4-2.7-.3c-2.4-.3-2.4-.3-4.4-1.3q.7-10.2 2.6-20.2c.4-2.8.4-2.8.4-8.8l-15-3zm181.5 2.8c4 4 4.5 9.9 5.5 15.2l.6 2.6c.9 5.2 1.2 10.4-.7 15.3-4.6 5-11.2 6-17.6 7.3l-2.7.5c-16.2 3-16.2 3-21.8-.9-1.8-2.8-1.8-2.8-1.8-7.8l11-2v2l7.7-.9 2.2-.2c4-.5 7.4-1.2 11.1-2.9v-6l-2.3 1.4A48 48 0 0 1 548 902c-5-4.7-5.7-10.4-6-17 .8-3.6.8-3.6 3-6 9.6-5.3 29.6-9.2 39.5-4.2m-21 8.5-2.1.3c-5 .9-5 .9-7 3.3-.5 2.7.1 3.8 1.6 6.1 6.9-.4 13.4-1 20-3 .7-2.3.7-2.3 1-5-1.2-1.8-1.2-1.8-3-3q-5.2 0-10.6 1.3M522 881a86 86 0 0 1 1.4 13.8v2.2l.2 4.5.2 7 .1 4.4v2.1l.1 5c-1 1-1 1-3.5 1.1h-6.1l-2.4-.1q-1-14.5-1-29l-13 9c-5-5-5-5-7-8l6.6-5.1c2.4-1.9 2.4-1.9 4-3.5 5.7-5.1 13.3-3.8 20.4-3.4"/></svg>